# xmcd
#
# Track frame offsets:
#	182
#	22640
#	43355
#	61817
#	83677
#	105235
#	124230
#	145505
#	166305
#	185497
#	207715
#	223370
#
# Disc length: 3251 seconds
#
# Revision: 3
# Processed by: cddbd v1.5.2PL0 Copyright (c) Steve Scherf et al.
# Submitted via: EasyCDDAExtractor 15.3.0.1
#
DISCID=a60cb10c
DTITLE=Luis Enrique - Evolucion
DYEAR=2000
DGENRE=Latin
TTITLE0=Que Se Yo
TTITLE1=Alma Rosa (Version En Salsa)
TTITLE2=Debajo De La Luna
TTITLE3=Te Extrañare
TTITLE4=Se Feliz
TTITLE5=Trampa Del Destino
TTITLE6=Tu Me Amas (Sabor Locura)
TTITLE7=Anonimo
TTITLE8=Plantar Bandera
TTITLE9=Nena
TTITLE10=Alma Rosa (Version En Balada)
TTITLE11=Viaje A La Felicidad
EXTD=
EXTT0=
EXTT1=
EXTT2=
EXTT3=
EXTT4=
EXTT5=
EXTT6=
EXTT7=
EXTT8=
EXTT9=
EXTT10=
EXTT11=
PLAYORDER=
